HIERARCHY
ROOT Hips
{
	OFFSET 0.000000 0.000000 0.000000
	CHANNELS 6 Xposition Yposition Zposition Zrotation Yrotation Xrotation 
	JOINT LeftUpLeg_virtual
	{
		OFFSET 0.000000 0.000000 0.000000
		CHANNELS 3 Zrotation Yrotation Xrotation
		JOINT LeftUpLeg
		{
			OFFSET 10.205400 -3.823500 0.155100
			CHANNELS 3 Zrotation Yrotation Xrotation
			JOINT LeftLeg
			{
				OFFSET 0.708757 -12.982077 0.567790
				CHANNELS 3 Zrotation Yrotation Xrotation
				JOINT LeftFoot
				{
					OFFSET -0.708756 -10.717838 -2.184338
					CHANNELS 3 Zrotation Yrotation Xrotation
					JOINT LeftToeBase
					{
						OFFSET 0.108149 -7.191104 7.560241
						CHANNELS 3 Zrotation Yrotation Xrotation
						End Site
						{
							OFFSET 0.000000 0.000000 0.000000
						}
					}
				}
			}
		}
	}
	JOINT RightUpLeg_virtual
	{
		OFFSET 0.000000 0.000000 0.000000
		CHANNELS 3 Zrotation Yrotation Xrotation
		JOINT RightUpLeg
		{
			OFFSET -10.205400 -3.823500 0.005500
			CHANNELS 3 Zrotation Yrotation Xrotation
			JOINT RightLeg
			{
				OFFSET -0.708756 -12.982134 0.610632
				CHANNELS 3 Zrotation Yrotation Xrotation
				JOINT RightFoot
				{
					OFFSET 0.708754 -10.717769 -1.945823
					CHANNELS 3 Zrotation Yrotation Xrotation
					JOINT RightToeBase
					{
						OFFSET -0.108140 -7.191069 7.372968
						CHANNELS 3 Zrotation Yrotation Xrotation
						End Site
						{
							OFFSET 0.000000 0.000000 0.000000
						}
					}
				}
			}
		}
	}
	JOINT Spine_virtual
	{
		OFFSET 0.000000 0.000000 0.000000
		CHANNELS 3 Zrotation Yrotation Xrotation
		JOINT Spine
		{
			OFFSET 0.000000 6.876099 0.125700
			CHANNELS 3 Zrotation Yrotation Xrotation
			JOINT Spine1
			{
				OFFSET 0.000000 8.022060 0.146608
				CHANNELS 3 Zrotation Yrotation Xrotation
				JOINT Spine2
				{
					OFFSET 0.000000 9.168068 0.167552
					CHANNELS 3 Zrotation Yrotation Xrotation
					JOINT Neck_virtual
					{
						OFFSET 0.000000 0.000000 0.000000
						CHANNELS 3 Zrotation Yrotation Xrotation
						JOINT Neck
						{
							OFFSET 0.000000 10.314075 0.188496
							CHANNELS 3 Zrotation Yrotation Xrotation
							JOINT Head
							{
								OFFSET 0.000000 7.643700 -2.377400
								CHANNELS 3 Zrotation Yrotation Xrotation
								End Site
								{
									OFFSET 0.000000 0.000000 0.000000
								}
							}
						}
					}
					JOINT LeftShoulder_virtual
					{
						OFFSET 0.000000 0.000000 0.000000
						CHANNELS 3 Zrotation Yrotation Xrotation
						JOINT LeftShoulder
						{
							OFFSET 4.392200 8.824978 0.174984
							CHANNELS 3 Zrotation Yrotation Xrotation
							JOINT LeftArm
							{
								OFFSET 8.771219 -2.981674 -0.026999
								CHANNELS 3 Zrotation Yrotation Xrotation
								JOINT LeftForeArm
								{
									OFFSET 8.512804 0.000000 -0.000000
									CHANNELS 3 Zrotation Yrotation Xrotation
									JOINT LeftHand
									{
										OFFSET 18.484802 0.000000 -0.000000
										CHANNELS 3 Zrotation Yrotation Xrotation
										End Site
										{
											OFFSET 0.000000 0.000000 0.000000
										}
									}
								}
							}
						}
					}
					JOINT RightShoulder_virtual
					{
						OFFSET 0.000000 0.000000 0.000000
						CHANNELS 3 Zrotation Yrotation Xrotation
						JOINT RightShoulder
						{
							OFFSET -4.392200 8.824993 0.141379
							CHANNELS 3 Zrotation Yrotation Xrotation
							JOINT RightArm
							{
								OFFSET -8.771282 -2.981682 -0.094208
								CHANNELS 3 Zrotation Yrotation Xrotation
								JOINT RightForeArm
								{
									OFFSET -8.494598 0.000000 0.000000
									CHANNELS 3 Zrotation Yrotation Xrotation
									JOINT RightHand
									{
										OFFSET -18.483803 0.000000 0.000001
										CHANNELS 3 Zrotation Yrotation Xrotation
										End Site
										{
											OFFSET 0.000000 0.000000 0.000000
										}
									}
								}
							}
						}
					}
				}
			}
		}
	}
}
MOTION
Frames: 7
Frame Time: 0.033333
-1.177499 36.305916 -23.559994 179.375248 1.060852 -178.631058 -1.376929 -3.580581 9.444001 -7.382016 11.957392 -21.560252 15.314034 5.973389 20.652392 -8.642688 -5.031665 10.444704 0.000000 0.000000 0.000000 1.979791 -2.501982 9.750020 1.147030 -3.636870 -15.484669 -8.459855 5.706490 19.379132 6.779653 3.956083 16.028014 0.000000 0.000000 0.000000 1.679997 -0.844992 -5.986350 -0.490890 0.660795 -4.940024 -0.582993 -2.514487 7.586679 0.068941 0.058166 0.219432 -0.998689 -0.548295 10.211844 -1.810438 -3.186139 3.594187 0.000000 0.000000 0.000000 0.597840 -0.093284 7.837021 -14.254024 -4.165015 4.449477 -55.726219 23.472394 11.747012 1.440884 -47.428475 2.478696 0.000000 0.000000 0.000000 -3.028737 1.118498 7.100245 23.389105 0.113271 2.366299 54.951758 -20.756453 17.850614 -5.199595 33.463463 -6.815541 0.000000 0.000000 0.000000 
-1.190886 36.309559 -23.590057 179.074992 2.160069 -178.074957 -1.339674 -3.104661 9.807289 -7.942386 12.221150 -21.224820 15.065019 5.164563 20.830737 -9.089095 -5.732212 11.010452 0.000000 0.000000 0.000000 2.399399 -3.423653 10.422642 0.279279 -4.553939 -14.773747 -9.277845 6.333399 19.768809 6.174531 3.501893 16.424617 0.000000 0.000000 0.000000 1.574546 -0.619530 -6.368377 -0.579430 0.701458 -5.209922 -0.645286 -2.449396 7.478218 0.036300 0.207960 0.458539 -1.023894 0.284877 10.298012 -1.775401 -3.169661 3.720509 0.000000 0.000000 0.000000 0.477498 0.197849 7.712671 -14.108763 -3.955244 4.516846 -55.604399 23.551867 11.869824 1.294681 -47.538745 2.620408 0.000000 0.000000 0.000000 -3.157515 1.467882 7.331854 23.470950 0.618889 2.209723 55.067201 -20.748699 17.701757 -5.178014 33.290400 -6.823406 0.000000 0.000000 0.000000 
-1.207421 36.304836 -23.637045 178.850156 2.234033 -178.061133 -1.507730 -3.071846 9.804200 -8.008424 12.232360 -21.174269 15.041537 5.180512 20.850413 -9.080001 -5.648558 11.028392 0.000000 0.000000 0.000000 2.218636 -3.403122 10.425228 0.201287 -4.542450 -14.719012 -9.269974 6.376639 19.753682 6.200331 3.439402 16.410460 0.000000 0.000000 0.000000 1.420093 -0.534041 -6.508492 -0.665115 0.720983 -5.208898 -0.712429 -2.423911 7.628379 0.040937 0.205550 0.397355 -0.942495 -0.122576 10.278980 -1.764340 -3.150527 3.497534 0.000000 0.000000 0.000000 0.579384 0.159519 7.653258 -14.169969 -3.987320 4.455752 -55.686891 23.615463 11.768631 1.245031 -47.518873 2.663551 0.000000 0.000000 0.000000 -3.050703 1.471707 7.175693 23.503741 0.465212 2.272568 55.030800 -20.818519 17.764904 -5.246773 33.314019 -7.003552 0.000000 0.000000 0.000000 
-1.229089 36.298691 -23.682547 178.846837 2.333263 -178.052377 -1.515214 -3.009820 9.806267 -8.062090 12.277221 -21.124112 15.063241 5.159678 20.876552 -9.086832 -5.634682 11.038427 0.000000 0.000000 0.000000 2.201284 -3.373733 10.434764 0.159474 -4.517017 -14.660967 -9.282435 6.414267 19.730301 6.214255 3.447003 16.397515 0.000000 0.000000 0.000000 1.412380 -0.510935 -6.556322 -0.646906 0.726495 -5.236454 -0.687402 -2.400156 7.607903 0.048659 0.225487 0.422747 -0.961202 -0.147620 10.269546 -1.741093 -3.129782 3.604718 0.000000 0.000000 0.000000 0.566023 0.125556 7.659177 -14.173951 -4.015576 4.480522 -55.693783 23.594581 11.855423 1.280065 -47.475620 2.623237 0.000000 0.000000 0.000000 -3.049594 1.530070 7.128820 23.497808 0.410408 2.325199 55.039058 -20.805603 17.756993 -5.308588 33.245959 -6.938627 0.000000 0.000000 0.000000 
-1.252788 36.293831 -23.719501 178.989069 2.437749 -178.048401 -1.389332 -2.940422 9.818687 -8.118489 12.310638 -21.084768 15.080897 5.140200 20.910626 -9.085486 -5.616305 11.028070 0.000000 0.000000 0.000000 2.311728 -3.329757 10.453882 0.139495 -4.480195 -14.615027 -9.319936 6.461569 19.708965 6.208101 3.521395 16.385383 0.000000 0.000000 0.000000 1.499635 -0.536517 -6.555276 -0.566835 0.863832 -5.264353 -0.631420 -2.270229 7.495760 0.083014 0.270199 0.431698 -0.994996 -0.338204 10.290259 -1.771534 -3.159004 3.819779 0.000000 0.000000 0.000000 0.534113 -0.097374 7.847198 -14.249089 -4.110982 4.475324 -55.717630 23.595527 11.764933 1.466652 -47.544820 2.447728 0.000000 0.000000 0.000000 -3.092019 1.401223 7.150625 23.527193 0.267969 2.314262 55.064196 -20.977056 17.605117 -5.266279 33.367257 -6.867309 0.000000 0.000000 0.000000 
-1.275247 36.293896 -23.743988 178.902093 2.528756 -178.040219 -1.476394 -2.882038 9.823283 -8.143694 12.329055 -21.064098 15.088274 5.277687 20.947319 -9.100979 -5.662463 11.024593 0.000000 0.000000 0.000000 2.241002 -3.251721 10.470797 0.071055 -4.443258 -14.591955 -9.322561 6.495010 19.694953 6.233603 3.456394 16.363559 0.000000 0.000000 0.000000 1.392721 -0.330024 -6.781653 -0.578392 0.647021 -5.153627 -0.646138 -2.437334 7.841357 0.045485 0.219635 0.253688 -0.995595 -0.403499 10.222125 -1.870640 -3.270440 3.479418 0.000000 0.000000 0.000000 0.624043 0.184473 7.582712 -14.259969 -4.189656 4.486082 -55.712146 23.582179 11.887283 1.388754 -47.412721 2.505665 0.000000 0.000000 0.000000 -3.038930 1.358383 7.055728 23.476549 0.386559 2.271707 55.116222 -20.948475 17.631899 -5.204973 33.337812 -6.852771 0.000000 0.000000 0.000000 
-1.300510 36.295883 -23.758083 178.864855 2.644453 -178.058032 -1.544116 -2.817079 9.838582 -8.148680 12.360012 -21.043830 15.130886 5.405496 21.000677 -9.109403 -5.730657 11.027150 0.000000 0.000000 0.000000 2.207658 -3.179197 10.485004 0.010470 -4.406249 -14.585080 -9.319342 6.522493 19.699568 6.270950 3.372641 16.354618 0.000000 0.000000 0.000000 1.410275 -0.442005 -6.584728 -0.612487 0.680657 -5.296524 -0.668226 -2.344094 7.482782 0.081437 0.300307 0.420952 -0.980770 -0.284538 10.259995 -1.753849 -3.165283 3.710891 0.000000 0.000000 0.000000 0.568604 -0.007574 7.818830 -14.275244 -4.065456 4.450249 -55.614337 23.523231 11.925383 1.488034 -47.504823 2.409575 0.000000 0.000000 0.000000 -3.009345 1.350819 7.271104 23.507744 0.293184 2.285858 55.058298 -20.966541 17.547984 -5.274224 33.500575 -6.884292 0.000000 0.000000 0.000000 
